# xmcd
#
# Track frame offsets: 
#        150
#        39609
#        92007
#        123801
#        162913
#        198868
#
# Disc length: 3188 seconds
#
# Revision: 0
# Processed by: cddbd v1.5.2PL0 Copyright (c) Steve Scherf et al.
# Submitted via: ExactAudioCopy v1.0b3
#
DISCID=420c7206
DTITLE=Grzegorz Kapołka - Bluelive
DYEAR=2002
DGENRE=Blues
TTITLE0=Bears Blues
TTITLE1=Blue Blues
TTITLE2=For Steve Ray
TTITLE3=Zuccharo
TTITLE4=New In G
TTITLE5=For John Scofield
EXTD=
EXTT0=
EXTT1=
EXTT2=
EXTT3=
EXTT4=
EXTT5=
PLAYORDER=
